<svg viewBox="0 0 400 400" xmlns="http://www.w3.org/2000/svg" width="400" height="400">
  <defs>
    <!-- Dégradé de fond -->
    <linearGradient id="pixelBgGradient" x1="0%" y1="0%" x2="100%" y2="100%">
      <stop offset="0%" style="stop-color:#FFE5F0;stop-opacity:1" />
      <stop offset="100%" style="stop-color:#E8D4FF;stop-opacity:1" />
    </linearGradient>
  </defs>
  
  <!-- Fond dégradé -->
  <rect width="400" height="400" fill="url(#pixelBgGradient)"/>
  
  <!-- Grille principale 20x20 pixels -->
  <!-- Lignes verticales -->
  <line x1="20" y1="0" x2="20" y2="400" stroke="#FFB5E8" stroke-width="1" opacity="0.3"/>
  <line x1="40" y1="0" x2="40" y2="400" stroke="#FFB5E8" stroke-width="1" opacity="0.3"/>
  <line x1="60" y1="0" x2="60" y2="400" stroke="#FFB5E8" stroke-width="1" opacity="0.3"/>
  <line x1="80" y1="0" x2="80" y2="400" stroke="#FFB5E8" stroke-width="1" opacity="0.3"/>
  <line x1="100" y1="0" x2="100" y2="400" stroke="#FFB5E8" stroke-width="1.5" opacity="0.4"/>
  <line x1="120" y1="0" x2="120" y2="400" stroke="#FFB5E8" stroke-width="1" opacity="0.3"/>
  <line x1="140" y1="0" x2="140" y2="400" stroke="#FFB5E8" stroke-width="1" opacity="0.3"/>
  <line x1="160" y1="0" x2="160" y2="400" stroke="#FFB5E8" stroke-width="1" opacity="0.3"/>
  <line x1="180" y1="0" x2="180" y2="400" stroke="#FFB5E8" stroke-width="1" opacity="0.3"/>
  <line x1="200" y1="0" x2="200" y2="400" stroke="#E5B8FF" stroke-width="2" opacity="0.5"/>
  <line x1="220" y1="0" x2="220" y2="400" stroke="#FFB5E8" stroke-width="1" opacity="0.3"/>
  <line x1="240" y1="0" x2="240" y2="400" stroke="#FFB5E8" stroke-width="1" opacity="0.3"/>
  <line x1="260" y1="0" x2="260" y2="400" stroke="#FFB5E8" stroke-width="1" opacity="0.3"/>
  <line x1="280" y1="0" x2="280" y2="400" stroke="#FFB5E8" stroke-width="1" opacity="0.3"/>
  <line x1="300" y1="0" x2="300" y2="400" stroke="#FFB5E8" stroke-width="1.5" opacity="0.4"/>
  <line x1="320" y1="0" x2="320" y2="400" stroke="#FFB5E8" stroke-width="1" opacity="0.3"/>
  <line x1="340" y1="0" x2="340" y2="400" stroke="#FFB5E8" stroke-width="1" opacity="0.3"/>
  <line x1="360" y1="0" x2="360" y2="400" stroke="#FFB5E8" stroke-width="1" opacity="0.3"/>
  <line x1="380" y1="0" x2="380" y2="400" stroke="#FFB5E8" stroke-width="1" opacity="0.3"/>
  
  <!-- Lignes horizontales -->
  <line x1="0" y1="20" x2="400" y2="20" stroke="#D4B5FF" stroke-width="1" opacity="0.3"/>
  <line x1="0" y1="40" x2="400" y2="40" stroke="#D4B5FF" stroke-width="1" opacity="0.3"/>
  <line x1="0" y1="60" x2="400" y2="60" stroke="#D4B5FF" stroke-width="1" opacity="0.3"/>
  <line x1="0" y1="80" x2="400" y2="80" stroke="#D4B5FF" stroke-width="1" opacity="0.3"/>
  <line x1="0" y1="100" x2="400" y2="100" stroke="#D4B5FF" stroke-width="1.5" opacity="0.4"/>
  <line x1="0" y1="120" x2="400" y2="120" stroke="#D4B5FF" stroke-width="1" opacity="0.3"/>
  <line x1="0" y1="140" x2="400" y2="140" stroke="#D4B5FF" stroke-width="1" opacity="0.3"/>
  <line x1="0" y1="160" x2="400" y2="160" stroke="#D4B5FF" stroke-width="1" opacity="0.3"/>
  <line x1="0" y1="180" x2="400" y2="180" stroke="#D4B5FF" stroke-width="1" opacity="0.3"/>
  <line x1="0" y1="200" x2="400" y2="200" stroke="#E5B8FF" stroke-width="2" opacity="0.5"/>
  <line x1="0" y1="220" x2="400" y2="220" stroke="#D4B5FF" stroke-width="1" opacity="0.3"/>
  <line x1="0" y1="240" x2="400" y2="240" stroke="#D4B5FF" stroke-width="1" opacity="0.3"/>
  <line x1="0" y1="260" x2="400" y2="260" stroke="#D4B5FF" stroke-width="1" opacity="0.3"/>
  <line x1="0" y1="280" x2="400" y2="280" stroke="#D4B5FF" stroke-width="1" opacity="0.3"/>
  <line x1="0" y1="300" x2="400" y2="300" stroke="#D4B5FF" stroke-width="1.5" opacity="0.4"/>
  <line x1="0" y1="320" x2="400" y2="320" stroke="#D4B5FF" stroke-width="1" opacity="0.3"/>
  <line x1="0" y1="340" x2="400" y2="340" stroke="#D4B5FF" stroke-width="1" opacity="0.3"/>
  <line x1="0" y1="360" x2="400" y2="360" stroke="#D4B5FF" stroke-width="1" opacity="0.3"/>
  <line x1="0" y1="380" x2="400" y2="380" stroke="#D4B5FF" stroke-width="1" opacity="0.3"/>
  
  <!-- Pixels colorés décoratifs -->
  <rect x="40" y="60" width="20" height="20" fill="#FFB5E8" opacity="0.4"/>
  <rect x="120" y="40" width="20" height="20" fill="#E5D0FF" opacity="0.4"/>
  <rect x="280" y="80" width="20" height="20" fill="#B5E8FF" opacity="0.4"/>
  <rect x="340" y="140" width="20" height="20" fill="#FFD4F0" opacity="0.4"/>
  
  <rect x="60" y="180" width="20" height="20" fill="#D4B5FF" opacity="0.3"/>
  <rect x="160" y="220" width="20" height="20" fill="#FFE5B5" opacity="0.3"/>
  <rect x="240" y="160" width="20" height="20" fill="#B5FFE8" opacity="0.3"/>
  <rect x="320" y="240" width="20" height="20" fill="#FFB5D4" opacity="0.3"/>
  
  <rect x="100" y="300" width="20" height="20" fill="#E8D4FF" opacity="0.4"/>
  <rect x="200" y="340" width="20" height="20" fill="#FFD9E8" opacity="0.4"/>
  <rect x="260" y="280" width="20" height="20" fill="#D4FFE8" opacity="0.3"/>
  
  <!-- Petits pixels dispersés -->
  <rect x="80" y="120" width="20" height="20" fill="#FFC9E8" opacity="0.2"/>
  <rect x="180" y="100" width="20" height="20" fill="#C9E8FF" opacity="0.2"/>
  <rect x="300" y="180" width="20" height="20" fill="#E8FFC9" opacity="0.2"/>
  <rect x="140" y="320" width="20" height="20" fill="#FFC9D4" opacity="0.2"/>
  <rect x="360" y="260" width="20" height="20" fill="#D4C9FF" opacity="0.2"/>
  
  <!-- Étoiles pixel art -->
  <rect x="220" y="60" width="20" height="20" fill="#FFF9B5" opacity="0.5"/>
  <rect x="200" y="80" width="20" height="20" fill="#FFF9B5" opacity="0.4"/>
  <rect x="240" y="80" width="20" height="20" fill="#FFF9B5" opacity="0.4"/>
  <rect x="220" y="100" width="20" height="20" fill="#FFF9B5" opacity="0.3"/>
  
  <!-- Cœur pixel art -->
  <rect x="40" y="240" width="20" height="20" fill="#FFB5E8" opacity="0.5"/>
  <rect x="60" y="240" width="20" height="20" fill="#FFB5E8" opacity="0.5"/>
  <rect x="20" y="260" width="20" height="20" fill="#FFB5E8" opacity="0.5"/>
  <rect x="40" y="260" width="20" height="20" fill="#FFC9ED" opacity="0.6"/>
  <rect x="60" y="260" width="20" height="20" fill="#FFC9ED" opacity="0.6"/>
  <rect x="80" y="260" width="20" height="20" fill="#FFB5E8" opacity="0.5"/>
  <rect x="40" y="280" width="20" height="20" fill="#FFB5E8" opacity="0.4"/>
  <rect x="60" y="280" width="20" height="20" fill="#FFB5E8" opacity="0.4"/>
</svg>